<?xml version="1.0" encoding="UTF-8" standalone="no"?>
<!DOCTYPE svg PUBLIC "-//W3C//DTD SVG 1.1//EN" "http://www.w3.org/Graphics/SVG/1.1/DTD/svg11.dtd">
<svg width="100%" height="100%" viewBox="0 0 1512 945" version="1.1" xmlns="http://www.w3.org/2000/svg" xmlns:xlink="http://www.w3.org/1999/xlink" xml:space="preserve" xmlns:serif="http://www.serif.com/" style="fill-rule:evenodd;clip-rule:evenodd;stroke-linecap:round;stroke-linejoin:round;stroke-miterlimit:1.5;">
    <g transform="matrix(1,0,0,1,-566.929,-1511.81)">
        <path d="M755.906,1606.3L1700.79,1984.25" style="fill:none;stroke:rgb(250,245,255);stroke-width:29.17px;"/>
        <g transform="matrix(1,0,0,1,-755.906,1039.37)">
            <path d="M1482.97,472.441C1490.62,472.441 1497.96,475.479 1503.37,480.887C1508.77,486.295 1511.81,493.63 1511.81,501.278L1511.81,632.58C1511.81,640.228 1508.77,647.563 1503.37,652.971C1497.96,658.379 1490.62,661.417 1482.97,661.417L1351.67,661.417C1344.02,661.417 1336.69,658.379 1331.28,652.971C1325.87,647.563 1322.84,640.228 1322.84,632.58L1322.84,501.278C1322.84,493.63 1325.87,486.295 1331.28,480.887C1336.69,475.479 1344.02,472.441 1351.67,472.441L1482.97,472.441Z" style="fill:rgb(192,132,252);"/>
        </g>
        <g transform="matrix(1,0,0,1,-755.906,1417.32)">
            <path d="M1482.97,472.441C1490.62,472.441 1497.96,475.479 1503.37,480.887C1508.77,486.295 1511.81,493.63 1511.81,501.278L1511.81,632.58C1511.81,640.228 1508.77,647.563 1503.37,652.971C1497.96,658.379 1490.62,661.417 1482.97,661.417L1351.67,661.417C1344.02,661.417 1336.69,658.379 1331.28,652.971C1325.87,647.563 1322.84,640.228 1322.84,632.58L1322.84,501.278C1322.84,493.63 1325.87,486.295 1331.28,480.887C1336.69,475.479 1344.02,472.441 1351.67,472.441L1482.97,472.441Z" style="fill:rgb(192,132,252);"/>
        </g>
        <g transform="matrix(1,0,0,1,-755.906,1795.28)">
            <path d="M1482.97,472.441C1490.62,472.441 1497.96,475.479 1503.37,480.887C1508.77,486.295 1511.81,493.63 1511.81,501.278L1511.81,632.58C1511.81,640.228 1508.77,647.563 1503.37,652.971C1497.96,658.379 1490.62,661.417 1482.97,661.417L1351.67,661.417C1344.02,661.417 1336.69,658.379 1331.28,652.971C1325.87,647.563 1322.84,640.228 1322.84,632.58L1322.84,501.278C1322.84,493.63 1325.87,486.295 1331.28,480.887C1336.69,475.479 1344.02,472.441 1351.67,472.441L1482.97,472.441Z" style="fill:rgb(192,132,252);"/>
        </g>
        <g transform="matrix(2,0,0,2,-944.882,850.394)">
            <path d="M1497.39,472.441C1501.22,472.441 1504.88,473.96 1507.59,476.664C1510.29,479.368 1511.81,483.035 1511.81,486.859L1511.81,646.999C1511.81,650.823 1510.29,654.49 1507.59,657.194C1504.88,659.898 1501.22,661.417 1497.39,661.417L1337.25,661.417C1333.43,661.417 1329.76,659.898 1327.06,657.194C1324.35,654.49 1322.84,650.823 1322.84,646.999L1322.84,486.859C1322.84,483.035 1324.35,479.368 1327.06,476.664C1329.76,473.96 1333.43,472.441 1337.25,472.441L1497.39,472.441Z" style="fill:rgb(192,132,252);"/>
        </g>
        <g transform="matrix(6.23904,0,0,6.23904,-6561.86,-14464.6)">
            <g transform="matrix(50,0,0,50,1340.78,2654.64)">
                <path d="M0.19,-0.218L0.19,-0.23C0.191,-0.272 0.194,-0.305 0.202,-0.329C0.209,-0.354 0.219,-0.374 0.233,-0.389C0.247,-0.404 0.264,-0.418 0.284,-0.43C0.298,-0.439 0.312,-0.449 0.323,-0.46C0.335,-0.47 0.344,-0.481 0.351,-0.493C0.358,-0.506 0.361,-0.52 0.361,-0.535C0.361,-0.552 0.357,-0.566 0.349,-0.578C0.342,-0.59 0.331,-0.6 0.318,-0.606C0.305,-0.613 0.29,-0.616 0.274,-0.616C0.259,-0.616 0.244,-0.613 0.231,-0.606C0.217,-0.6 0.206,-0.59 0.197,-0.576C0.188,-0.563 0.184,-0.547 0.183,-0.528L0.038,-0.528C0.039,-0.575 0.05,-0.614 0.072,-0.645C0.093,-0.676 0.122,-0.699 0.158,-0.714C0.193,-0.73 0.232,-0.737 0.275,-0.737C0.322,-0.737 0.364,-0.729 0.4,-0.714C0.436,-0.698 0.465,-0.676 0.485,-0.647C0.506,-0.617 0.516,-0.582 0.516,-0.54C0.516,-0.513 0.512,-0.488 0.503,-0.467C0.494,-0.445 0.481,-0.426 0.464,-0.41C0.448,-0.393 0.429,-0.379 0.407,-0.365C0.388,-0.354 0.373,-0.343 0.361,-0.331C0.349,-0.318 0.34,-0.304 0.334,-0.289C0.328,-0.273 0.325,-0.253 0.325,-0.23L0.325,-0.218L0.19,-0.218ZM0.261,0.009C0.237,0.009 0.217,0.001 0.2,-0.016C0.183,-0.032 0.175,-0.053 0.175,-0.076C0.175,-0.099 0.183,-0.119 0.2,-0.136C0.217,-0.152 0.237,-0.161 0.261,-0.161C0.283,-0.161 0.303,-0.152 0.32,-0.136C0.337,-0.119 0.346,-0.099 0.346,-0.076C0.346,-0.06 0.342,-0.046 0.334,-0.033C0.326,-0.02 0.315,-0.01 0.303,-0.002C0.29,0.005 0.276,0.009 0.261,0.009Z" style="fill:rgb(250,245,255);fill-rule:nonzero;"/>
            </g>
        </g>
    </g>
</svg>
