<?xml version="1.0" encoding="UTF-8" standalone="no"?>
<!DOCTYPE svg PUBLIC "-//W3C//DTD SVG 1.1//EN" "http://www.w3.org/Graphics/SVG/1.1/DTD/svg11.dtd">
<svg width="100%" height="100%" viewBox="0 0 1512 945" version="1.1" xmlns="http://www.w3.org/2000/svg" xmlns:xlink="http://www.w3.org/1999/xlink" xml:space="preserve" xmlns:serif="http://www.serif.com/" style="fill-rule:evenodd;clip-rule:evenodd;stroke-linecap:round;stroke-linejoin:round;stroke-miterlimit:1.5;">
    <g transform="matrix(1,0,0,1,-566.929,-1511.81)">
        <path d="M755.906,1606.3L1700.79,1984.25" style="fill:none;stroke:rgb(250,245,255);stroke-width:29.17px;"/>
        <g transform="matrix(1,0,0,1,-755.906,1039.37)">
            <path d="M1482.97,472.441C1490.62,472.441 1497.96,475.479 1503.37,480.887C1508.77,486.295 1511.81,493.63 1511.81,501.278L1511.81,632.58C1511.81,640.228 1508.77,647.563 1503.37,652.971C1497.96,658.379 1490.62,661.417 1482.97,661.417L1351.67,661.417C1344.02,661.417 1336.69,658.379 1331.28,652.971C1325.87,647.563 1322.84,640.228 1322.84,632.58L1322.84,501.278C1322.84,493.63 1325.87,486.295 1331.28,480.887C1336.69,475.479 1344.02,472.441 1351.67,472.441L1482.97,472.441Z" style="fill:rgb(192,132,252);"/>
        </g>
        <g transform="matrix(1,0,0,1,-755.906,1417.32)">
            <path d="M1482.97,472.441C1490.62,472.441 1497.96,475.479 1503.37,480.887C1508.77,486.295 1511.81,493.63 1511.81,501.278L1511.81,632.58C1511.81,640.228 1508.77,647.563 1503.37,652.971C1497.96,658.379 1490.62,661.417 1482.97,661.417L1351.67,661.417C1344.02,661.417 1336.69,658.379 1331.28,652.971C1325.87,647.563 1322.84,640.228 1322.84,632.58L1322.84,501.278C1322.84,493.63 1325.87,486.295 1331.28,480.887C1336.69,475.479 1344.02,472.441 1351.67,472.441L1482.97,472.441Z" style="fill:rgb(192,132,252);"/>
        </g>
        <g transform="matrix(1,0,0,1,-755.906,1795.28)">
            <path d="M1482.97,472.441C1490.62,472.441 1497.96,475.479 1503.37,480.887C1508.77,486.295 1511.81,493.63 1511.81,501.278L1511.81,632.58C1511.81,640.228 1508.77,647.563 1503.37,652.971C1497.96,658.379 1490.62,661.417 1482.97,661.417L1351.67,661.417C1344.02,661.417 1336.69,658.379 1331.28,652.971C1325.87,647.563 1322.84,640.228 1322.84,632.58L1322.84,501.278C1322.84,493.63 1325.87,486.295 1331.28,480.887C1336.69,475.479 1344.02,472.441 1351.67,472.441L1482.97,472.441Z" style="fill:rgb(192,132,252);"/>
        </g>
        <g transform="matrix(2,0,0,2,-944.882,850.394)">
            <path d="M1497.39,472.441C1501.22,472.441 1504.88,473.96 1507.59,476.664C1510.29,479.368 1511.81,483.035 1511.81,486.859L1511.81,646.999C1511.81,650.823 1510.29,654.49 1507.59,657.194C1504.88,659.898 1501.22,661.417 1497.39,661.417L1337.25,661.417C1333.43,661.417 1329.76,659.898 1327.06,657.194C1324.35,654.49 1322.84,650.823 1322.84,646.999L1322.84,486.859C1322.84,483.035 1324.35,479.368 1327.06,476.664C1329.76,473.96 1333.43,472.441 1337.25,472.441L1497.39,472.441Z" style="fill:rgb(192,132,252);"/>
        </g>
        <g transform="matrix(6.23904,0,0,6.23904,-6561.86,-14464.6)">
            <g transform="matrix(50,0,0,50,1366.13,2654.64)">
            </g>
            <text x="1340.78px" y="2654.64px" style="font-family:'Inter-Regular_Bold', 'Inter';font-size:50px;fill:rgb(250,245,255);">?</text>
        </g>
    </g>
</svg>
