<?xml version="1.0" encoding="UTF-8" standalone="no"?>
<!DOCTYPE svg PUBLIC "-//W3C//DTD SVG 1.1//EN" "http://www.w3.org/Graphics/SVG/1.1/DTD/svg11.dtd">
<svg width="100%" height="100%" viewBox="0 0 1701 945" version="1.1" xmlns="http://www.w3.org/2000/svg" xmlns:xlink="http://www.w3.org/1999/xlink" xml:space="preserve" xmlns:serif="http://www.serif.com/" style="fill-rule:evenodd;clip-rule:evenodd;stroke-linecap:round;stroke-linejoin:round;stroke-miterlimit:1.5;">
    <g transform="matrix(1,0,0,1,-566.929,-755.906)">
        <path d="M661.417,1511.81L661.417,1417.32L1228.35,1417.32L1228.35,1511.81" style="fill:none;stroke:rgb(250,245,255);stroke-width:29.17px;"/>
        <path d="M1606.3,1511.81L1606.3,1417.32L2173.23,1417.32L2173.23,1511.81" style="fill:none;stroke:rgb(250,245,255);stroke-width:29.17px;"/>
        <path d="M1889.76,1322.84L1889.76,1417.32" style="fill:none;stroke:rgb(250,245,255);stroke-width:29.17px;"/>
        <path d="M944.882,1322.84L944.882,1417.32" style="fill:none;stroke:rgb(250,245,255);stroke-width:29.17px;"/>
        <path d="M944.882,1133.86L944.882,1039.37L1889.76,1039.37L1889.76,1133.86" style="fill:none;stroke:rgb(250,245,255);stroke-width:29.17px;"/>
        <path d="M1417.32,944.882L1417.32,1039.37" style="fill:none;stroke:rgb(250,245,255);stroke-width:29.17px;"/>
        <g transform="matrix(1,0,0,1,0,283.465)">
            <path d="M1482.97,472.441C1490.62,472.441 1497.96,475.479 1503.37,480.887C1508.77,486.295 1511.81,493.63 1511.81,501.278L1511.81,632.58C1511.81,640.228 1508.77,647.563 1503.37,652.971C1497.96,658.379 1490.62,661.417 1482.97,661.417L1351.67,661.417C1344.02,661.417 1336.69,658.379 1331.28,652.971C1325.87,647.563 1322.84,640.228 1322.84,632.58L1322.84,501.278C1322.84,493.63 1325.87,486.295 1331.28,480.887C1336.69,475.479 1344.02,472.441 1351.67,472.441L1482.97,472.441Z" style="fill:rgb(192,132,252);"/>
        </g>
        <g transform="matrix(1,0,0,1,-755.906,1039.37)">
            <path d="M1482.97,472.441C1490.62,472.441 1497.96,475.479 1503.37,480.887C1508.77,486.295 1511.81,493.63 1511.81,501.278L1511.81,632.58C1511.81,640.228 1508.77,647.563 1503.37,652.971C1497.96,658.379 1490.62,661.417 1482.97,661.417L1351.67,661.417C1344.02,661.417 1336.69,658.379 1331.28,652.971C1325.87,647.563 1322.84,640.228 1322.84,632.58L1322.84,501.278C1322.84,493.63 1325.87,486.295 1331.28,480.887C1336.69,475.479 1344.02,472.441 1351.67,472.441L1482.97,472.441Z" style="fill:rgb(192,132,252);"/>
        </g>
        <g transform="matrix(1,0,0,1,-188.976,1039.37)">
            <path d="M1482.97,472.441C1490.62,472.441 1497.96,475.479 1503.37,480.887C1508.77,486.295 1511.81,493.63 1511.81,501.278L1511.81,632.58C1511.81,640.228 1508.77,647.563 1503.37,652.971C1497.96,658.379 1490.62,661.417 1482.97,661.417L1351.67,661.417C1344.02,661.417 1336.69,658.379 1331.28,652.971C1325.87,647.563 1322.84,640.228 1322.84,632.58L1322.84,501.278C1322.84,493.63 1325.87,486.295 1331.28,480.887C1336.69,475.479 1344.02,472.441 1351.67,472.441L1482.97,472.441Z" style="fill:rgb(192,132,252);"/>
        </g>
        <g transform="matrix(1,0,0,1,-472.441,661.417)">
            <path d="M1482.97,472.441C1490.62,472.441 1497.96,475.479 1503.37,480.887C1508.77,486.295 1511.81,493.63 1511.81,501.278L1511.81,632.58C1511.81,640.228 1508.77,647.563 1503.37,652.971C1497.96,658.379 1490.62,661.417 1482.97,661.417L1351.67,661.417C1344.02,661.417 1336.69,658.379 1331.28,652.971C1325.87,647.563 1322.84,640.228 1322.84,632.58L1322.84,501.278C1322.84,493.63 1325.87,486.295 1331.28,480.887C1336.69,475.479 1344.02,472.441 1351.67,472.441L1482.97,472.441Z" style="fill:rgb(192,132,252);"/>
        </g>
        <g transform="matrix(1,0,0,1,188.976,1039.37)">
            <path d="M1482.97,472.441C1490.62,472.441 1497.96,475.479 1503.37,480.887C1508.77,486.295 1511.81,493.63 1511.81,501.278L1511.81,632.58C1511.81,640.228 1508.77,647.563 1503.37,652.971C1497.96,658.379 1490.62,661.417 1482.97,661.417L1351.67,661.417C1344.02,661.417 1336.69,658.379 1331.28,652.971C1325.87,647.563 1322.84,640.228 1322.84,632.58L1322.84,501.278C1322.84,493.63 1325.87,486.295 1331.28,480.887C1336.69,475.479 1344.02,472.441 1351.67,472.441L1482.97,472.441Z" style="fill:rgb(192,132,252);"/>
        </g>
        <g transform="matrix(1,0,0,1,755.906,1039.37)">
            <path d="M1482.97,472.441C1490.62,472.441 1497.96,475.479 1503.37,480.887C1508.77,486.295 1511.81,493.63 1511.81,501.278L1511.81,632.58C1511.81,640.228 1508.77,647.563 1503.37,652.971C1497.96,658.379 1490.62,661.417 1482.97,661.417L1351.67,661.417C1344.02,661.417 1336.69,658.379 1331.28,652.971C1325.87,647.563 1322.84,640.228 1322.84,632.58L1322.84,501.278C1322.84,493.63 1325.87,486.295 1331.28,480.887C1336.69,475.479 1344.02,472.441 1351.67,472.441L1482.97,472.441Z" style="fill:rgb(192,132,252);"/>
        </g>
        <g transform="matrix(1,0,0,1,472.441,661.417)">
            <path d="M1482.97,472.441C1490.62,472.441 1497.96,475.479 1503.37,480.887C1508.77,486.295 1511.81,493.63 1511.81,501.278L1511.81,632.58C1511.81,640.228 1508.77,647.563 1503.37,652.971C1497.96,658.379 1490.62,661.417 1482.97,661.417L1351.67,661.417C1344.02,661.417 1336.69,658.379 1331.28,652.971C1325.87,647.563 1322.84,640.228 1322.84,632.58L1322.84,501.278C1322.84,493.63 1325.87,486.295 1331.28,480.887C1336.69,475.479 1344.02,472.441 1351.67,472.441L1482.97,472.441Z" style="fill:rgb(192,132,252);"/>
        </g>
    </g>
</svg>
